<svg xmlns="http://www.w3.org/2000/svg" width="104" height="30" fill="none"><g clip-path="url(#a)"><path fill="#fff" d="M29.988 21.311a6.61 6.61 0 0 1-1.966-.29 5.676 5.676 0 0 1-1.72-.872 6.125 6.125 0 0 1-1.363-1.407 7.037 7.037 0 0 1-.916-1.966l2.837-1.118c.209.805.574 1.475 1.095 2.011.521.522 1.206.782 2.055.782.313 0 .611-.037.894-.111.298-.09.559-.209.782-.358.238-.164.425-.365.559-.603.134-.239.2-.514.2-.827 0-.298-.051-.566-.156-.804a1.837 1.837 0 0 0-.536-.67c-.238-.21-.558-.41-.96-.604a13.519 13.519 0 0 0-1.453-.603l-.983-.358a7.914 7.914 0 0 1-1.318-.603 5.857 5.857 0 0 1-1.184-.916 4.766 4.766 0 0 1-.894-1.251 3.951 3.951 0 0 1-.335-1.654c0-.625.119-1.206.357-1.742a4.34 4.34 0 0 1 1.05-1.43 4.824 4.824 0 0 1 1.631-.961 6.045 6.045 0 0 1 2.123-.357c.804 0 1.497.111 2.078.335.596.208 1.095.484 1.497.826.417.328.752.693 1.005 1.095.254.402.44.782.559 1.14l-2.659 1.117c-.149-.447-.424-.85-.827-1.207-.387-.357-.923-.536-1.608-.536-.656 0-1.2.156-1.631.47-.432.297-.648.692-.648 1.183 0 .477.208.887.625 1.23.417.327 1.08.647 1.989.96l1.005.335c.64.224 1.222.484 1.743.782.536.283.99.626 1.363 1.028.387.402.678.864.871 1.385.209.507.313 1.095.313 1.765 0 .835-.171 1.557-.514 2.168a4.526 4.526 0 0 1-1.273 1.474 5.583 5.583 0 0 1-1.765.872 6.76 6.76 0 0 1-1.922.29Zm8.24-8.803h-1.921l1.921-2.502V6.653h2.927v3.351h2.682v2.503h-2.682v4.245c0 .253.023.492.067.715.06.209.164.387.313.536.209.239.507.358.894.358.253 0 .454-.022.603-.067a2.3 2.3 0 0 0 .425-.224l.826 2.57a4.454 4.454 0 0 1-1.117.357c-.387.09-.819.134-1.296.134-.55 0-1.05-.082-1.497-.245a3.325 3.325 0 0 1-1.094-.715c-.7-.67-1.05-1.624-1.05-2.86v-4.804Zm14.292 7.284h-.18a4.86 4.86 0 0 1-1.25 1.072c-.477.298-1.095.447-1.855.447a4.464 4.464 0 0 1-1.609-.29 4.017 4.017 0 0 1-1.296-.76 3.449 3.449 0 0 1-.871-1.184 3.65 3.65 0 0 1-.313-1.52c0-.566.112-1.072.335-1.519.224-.462.536-.856.939-1.184a4.098 4.098 0 0 1 1.407-.737 5.764 5.764 0 0 1 1.788-.268c.715 0 1.303.06 1.765.178.462.105.841.216 1.14.336v-.336c0-.58-.232-1.057-.693-1.43-.462-.387-1.035-.58-1.72-.58-1.014 0-1.87.424-2.57 1.273l-2.123-1.452c1.162-1.46 2.748-2.19 4.76-2.19 1.697 0 2.993.402 3.887 1.207.894.79 1.34 1.966 1.34 3.53v6.569H52.52v-1.162Zm0-3.285a5.43 5.43 0 0 0-1.073-.38 4.222 4.222 0 0 0-1.184-.156c-.7 0-1.244.157-1.631.47-.373.297-.559.67-.559 1.117 0 .447.179.804.536 1.072.373.268.797.402 1.274.402.387 0 .745-.067 1.072-.2.328-.15.604-.336.827-.56.238-.238.417-.506.536-.804.134-.313.201-.633.201-.96Zm6.197-3.999h-1.921l1.921-2.502V6.653h2.927v3.351h2.681v2.503h-2.68v4.245c0 .253.021.492.066.715.06.209.164.387.313.536.209.239.506.358.894.358.253 0 .454-.022.603-.067.149-.06.29-.134.425-.224l.826 2.57a4.457 4.457 0 0 1-1.117.357c-.387.09-.82.134-1.296.134-.551 0-1.05-.082-1.497-.245a3.325 3.325 0 0 1-1.095-.715c-.7-.67-1.05-1.624-1.05-2.86v-4.804Zm11.311 7.91-4.602-10.412h3.329l2.77 6.636h.157l2.659-6.636h3.262l-6.86 15.774h-3.15l2.435-5.363Zm8.82-10.412h2.748v1.318h.179c.268-.462.685-.857 1.251-1.184.566-.328 1.266-.492 2.1-.492.7 0 1.363.149 1.989.447.64.283 1.199.685 1.676 1.206a5.504 5.504 0 0 1 1.162 1.833 6.32 6.32 0 0 1 .424 2.346 6.32 6.32 0 0 1-.424 2.346 5.761 5.761 0 0 1-1.162 1.854 5.412 5.412 0 0 1-1.676 1.207 4.77 4.77 0 0 1-1.989.424c-.834 0-1.534-.164-2.1-.491-.566-.328-.983-.723-1.251-1.184h-.179l.179 1.564v4.58h-2.927V10.006Zm5.675 8.602c.387 0 .752-.075 1.095-.224.358-.149.67-.357.939-.625.267-.268.483-.596.647-.983.164-.388.246-.82.246-1.296a3.29 3.29 0 0 0-.246-1.296 3.057 3.057 0 0 0-.647-.983 2.88 2.88 0 0 0-.939-.626 2.717 2.717 0 0 0-1.095-.223c-.387 0-.76.074-1.117.223a2.651 2.651 0 0 0-.916.603 3.053 3.053 0 0 0-.648.983 3.354 3.354 0 0 0-.246 1.319c0 .491.082.93.246 1.318a2.945 2.945 0 0 0 1.564 1.609c.358.134.73.2 1.117.2Zm18.092-.291a6.106 6.106 0 0 1-2.056 2.168c-.849.55-1.892.826-3.128.826a6.259 6.259 0 0 1-2.324-.424 5.74 5.74 0 0 1-1.832-1.23 5.74 5.74 0 0 1-1.229-1.831 6.321 6.321 0 0 1-.424-2.346c0-.79.141-1.535.424-2.235a5.574 5.574 0 0 1 1.184-1.854 5.675 5.675 0 0 1 1.788-1.274 5.572 5.572 0 0 1 2.301-.469c.88 0 1.661.149 2.346.447a4.616 4.616 0 0 1 1.721 1.206c.461.507.812 1.11 1.05 1.81s.357 1.46.357 2.28v.267c-.014.09-.022.172-.022.246a1.249 1.249 0 0 0-.022.246h-8.245c.06.447.179.834.358 1.162.193.313.424.58.692.804.283.209.589.365.916.47.328.089.663.133 1.006.133.67 0 1.221-.149 1.653-.447a3.4 3.4 0 0 0 1.05-1.161l2.436 1.206Zm-2.66-4.245a1.78 1.78 0 0 0-.2-.648 2.042 2.042 0 0 0-.492-.67 2.414 2.414 0 0 0-.804-.514c-.313-.134-.693-.201-1.14-.201-.625 0-1.176.179-1.653.536-.477.357-.812.857-1.006 1.497h5.296Z"/><path stroke="#EC6979" stroke-width="3.563" d="M17.927 8.565 12.362 3 2.43 12.933l5.564 5.564"/><path stroke="#5F42E2" stroke-width="3.563" d="M1 21.436 6.565 27l9.932-9.932-5.565-5.565"/></g><defs><clipPath id="a"><path fill="#fff" d="M0 0h104v30H0z"/></clipPath></defs></svg>